# xmcd CD database file
#
# Track frame offsets:
#	150
#	14072
#	26535
#	48910
#	62527
#	76995
#	90410
#	105110
#	120407
#	134390
#	150162
#	167785
#
# Disc length: 2442 seconds
#
# Revision: 1
# Processed by: cddbd v1.5.2PL0 Copyright (c) Steve Scherf et al.
# Submitted via: CDex 1.51
#
DISCID=7f09880c
DTITLE=Dan Hicks and His Hot Licks - Where's The Money?
DYEAR=1971
DGENRE=Rock
TTITLE0=I Feel Like Singing
TTITLE1=Coast To Coast
TTITLE2=News From Up The Street
TTITLE3=Where's The Money?
TTITLE4=Caught In The Rain
TTITLE5=Shorty Falls In Love
TTITLE6=By Hook Or By Crook
TTITLE7=Reelin' Down
TTITLE8=The Buzzard Was Their Friend
TTITLE9=Traffic Jam
TTITLE10=Is This My Happy Home?
TTITLE11=Dig A Little Deeper
EXTD=YEAR: 1971
EXTT0=
EXTT1=
EXTT2=
EXTT3=
EXTT4=
EXTT5=
EXTT6=
EXTT7=
EXTT8=
EXTT9=
EXTT10=
EXTT11=
PLAYORDER=
